<?xml version="1.0" encoding="UTF-8"?>
<!--Generator: Apple Native CoreSVG 232.5-->
<!DOCTYPE svg
PUBLIC "-//W3C//DTD SVG 1.1//EN"
       "http://www.w3.org/Graphics/SVG/1.1/DTD/svg11.dtd">
<svg version="1.1" xmlns="http://www.w3.org/2000/svg" xmlns:xlink="http://www.w3.org/1999/xlink" width="20.5381" height="20.1812">
 <g>
  <rect height="20.1812" opacity="0" width="20.5381" x="0" y="0"/>
  <path d="M10.0875 20.175C15.6141 20.175 20.1767 15.606 20.1767 10.0875C20.1767 4.56094 15.606 0 10.0795 0C4.56269 0 0 4.56094 0 10.0875C0 15.606 4.5707 20.175 10.0875 20.175ZM10.0875 18.1879C5.59237 18.1879 1.9951 14.5826 1.9951 10.0875C1.9951 5.59237 5.58437 1.9871 10.0795 1.9871C14.5746 1.9871 18.1897 5.59237 18.1897 10.0875C18.1897 14.5826 14.5826 18.1879 10.0875 18.1879Z" fill="#ff453a"/>
  <path d="M6.3744 11.0125L13.7943 11.0125C14.3781 11.0125 14.7826 10.6685 14.7826 10.1053C14.7826 9.53398 14.3941 9.18203 13.7943 9.18203L6.3744 9.18203C5.7746 9.18203 5.37636 9.53398 5.37636 10.1053C5.37636 10.6685 5.79062 11.0125 6.3744 11.0125Z" fill="#ff453a"/>
 </g>
</svg>
