<?xml version="1.0" standalone="no"?>
<!DOCTYPE svg PUBLIC "-//W3C//DTD SVG 20010904//EN"
 "http://www.w3.org/TR/2001/REC-SVG-20010904/DTD/svg10.dtd">
<svg version="1.0" xmlns="http://www.w3.org/2000/svg"
 width="512.000000pt" height="512.000000pt" viewBox="0 0 512.000000 512.000000"
 preserveAspectRatio="xMidYMid meet">

<g transform="translate(0.000000,512.000000) scale(0.100000,-0.100000)"
fill="#b0b0b0" stroke="none">
<path d="M2495 4679 c-36 -8 -95 -64 -512 -482 -458 -459 -471 -473 -483 -523
-34 -150 104 -288 254 -253 48 11 64 24 316 275 146 145 269 264 273 264 4 0
7 -473 7 -1050 0 -1013 1 -1052 19 -1088 39 -75 101 -112 191 -112 90 0 152
37 191 112 18 36 19 75 19 1088 0 577 3 1050 7 1050 4 0 127 -119 273 -264
252 -251 268 -264 316 -275 150 -35 288 103 254 253 -12 50 -26 65 -483 523
-421 422 -474 472 -513 482 -49 13 -73 13 -129 0z"/>
<path d="M545 2113 c-44 -23 -74 -53 -96 -95 -18 -35 -19 -65 -19 -540 0 -560
1 -571 67 -708 50 -105 168 -223 273 -273 148 -71 33 -67 1790 -67 1757 0
1642 -4 1790 67 103 49 223 169 273 274 66 135 67 148 67 707 0 549 2 530 -59
595 -71 77 -217 78 -299 3 -58 -52 -57 -39 -62 -576 -5 -459 -6 -498 -24 -530
-26 -49 -45 -69 -91 -94 l-40 -21 -1555 0 c-1500 0 -1556 1 -1590 19 -49 26
-69 45 -94 91 -20 39 -21 53 -26 535 -4 393 -8 500 -19 520 -22 41 -64 81
-100 96 -45 19 -148 17 -186 -3z"/>
</g>
</svg>
