<?xml version="1.0" standalone="no"?>
<!DOCTYPE svg PUBLIC "-//W3C//DTD SVG 20010904//EN"
 "http://www.w3.org/TR/2001/REC-SVG-20010904/DTD/svg10.dtd">
<svg version="1.0" xmlns="http://www.w3.org/2000/svg"
 width="512.000000pt" height="512.000000pt" viewBox="0 0 512.000000 512.000000"
 preserveAspectRatio="xMidYMid meet">

<g transform="translate(0.000000,512.000000) scale(0.100000,-0.100000)"
fill="#b0b0b0" stroke="none">
<path d="M2460 4668 c-25 -14 -58 -44 -75 -67 l-30 -43 -5 -1059 -5 -1059
-250 251 c-137 138 -266 259 -287 269 -90 47 -177 34 -249 -39 -71 -70 -86
-158 -43 -245 9 -17 215 -230 458 -474 473 -476 493 -492 586 -492 93 0 113
16 586 492 243 244 449 457 457 473 44 88 25 186 -47 253 -25 23 -57 45 -73
49 -47 13 -126 8 -163 -11 -19 -10 -151 -133 -292 -274 l-258 -256 -2 1060 -3
1061 -27 39 c-44 62 -90 88 -167 92 -55 3 -74 -1 -111 -20z"/>
<path d="M540 2108 c-25 -14 -58 -44 -75 -67 l-30 -43 0 -536 0 -537 26 -67
c74 -190 207 -323 397 -397 l67 -26 1625 0 1625 0 70 22 c188 60 337 204 414
401 l26 67 0 536 0 536 -27 39 c-15 21 -44 50 -65 64 -31 21 -48 25 -114 25
-70 0 -81 -3 -120 -30 -23 -16 -53 -50 -66 -74 l-23 -44 0 -459 c0 -319 -4
-473 -12 -506 -16 -64 -86 -134 -150 -150 -65 -17 -3029 -17 -3093 -1 -53 13
-116 65 -141 116 -18 35 -19 74 -24 529 l-5 491 -27 39 c-44 62 -90 88 -167
92 -55 3 -74 -1 -111 -20z"/>
</g>
</svg>
