<?xml version="1.0" encoding="UTF-8"?>
<!--Generator: Apple Native CoreSVG 232.5-->
<!DOCTYPE svg
PUBLIC "-//W3C//DTD SVG 1.1//EN"
       "http://www.w3.org/Graphics/SVG/1.1/DTD/svg11.dtd">
<svg version="1.1" xmlns="http://www.w3.org/2000/svg" xmlns:xlink="http://www.w3.org/1999/xlink" width="20.5381" height="20.1812">
 <g>
  <rect height="20.1812" opacity="0" width="20.5381" x="0" y="0"/>
  <path d="M10.0875 20.175C15.6141 20.175 20.1767 15.606 20.1767 10.0875C20.1767 4.56094 15.606 0 10.0795 0C4.56269 0 0 4.56094 0 10.0875C0 15.606 4.5707 20.175 10.0875 20.175ZM10.0875 18.1879C5.59237 18.1879 1.9951 14.5826 1.9951 10.0875C1.9951 5.59237 5.58437 1.9871 10.0795 1.9871C14.5746 1.9871 18.1897 5.59237 18.1897 10.0875C18.1897 14.5826 14.5826 18.1879 10.0875 18.1879Z" fill="#b0b0b0"/>
  <path d="M5.57031 10.0857C5.57031 10.6152 5.94452 10.985 6.48651 10.985L9.16426 10.985L9.16426 13.6707C9.16426 14.2047 9.54199 14.5869 10.0715 14.5869C10.6107 14.5869 10.9947 14.2127 10.9947 13.6707L10.9947 10.985L13.6822 10.985C14.2162 10.985 14.5967 10.6152 14.5967 10.0857C14.5967 9.54648 14.2162 9.1625 13.6822 9.1625L10.9947 9.1625L10.9947 6.48476C10.9947 5.94101 10.6107 5.56054 10.0715 5.56054C9.54199 5.56054 9.16426 5.94101 9.16426 6.48476L9.16426 9.1625L6.48651 9.1625C5.94452 9.1625 5.57031 9.54648 5.57031 10.0857Z" fill="#b0b0b0"/>
 </g>
</svg>
